<svg baseProfile="full" height="600px" version="1.1" width="800px"
    xmlns="http://www.w3.org/2000/svg"
    xmlns:ev="http://www.w3.org/2001/xml-events"
    xmlns:xlink="http://www.w3.org/1999/xlink">
    <defs />
    <text style="font-size:10px; font-family:Arial; text-anchor: middle;dominant-baseline: middle;" x="80.0" y="25.0">Schwarze Pumpe</text>
    <line stroke="rgb(83%,83%,83%)" x1="80.0" x2="80.0" y1="50" y2="600" />
    <text style="font-size:10px; font-family:Arial; text-anchor: middle;dominant-baseline: middle;" x="400.0" y="25.0">Boxberg</text>
    <line stroke="rgb(83%,83%,83%)" x1="400.0" x2="400.0" y1="50" y2="600" />
    <text style="font-size:10px; font-family:Arial; text-anchor: middle;dominant-baseline: middle;" x="720.0" y="25.0">Cottbus</text>
    <line stroke="rgb(83%,83%,83%)" x1="720.0" x2="720.0" y1="50" y2="600" />
    <text style="font-size:10px; font-family:Arial; text-anchor: middle;dominant-baseline: middle;" x="40.0" y="50.0">13:45</text>
    <line stroke="rgb(83%,83%,83%)" x1="80" x2="720" y1="50.0" y2="50.0" />
    <text style="font-size:10px; font-family:Arial; text-anchor: middle;dominant-baseline: middle;" x="40.0" y="100.0">14:00</text>
    <line stroke="rgb(83%,83%,83%)" x1="80" x2="720" y1="100.0" y2="100.0" />
    <text style="font-size:10px; font-family:Arial; text-anchor: middle;dominant-baseline: middle;" x="40.0" y="150.0">14:15</text>
    <line stroke="rgb(83%,83%,83%)" x1="80" x2="720" y1="150.0" y2="150.0" />
    <text style="font-size:10px; font-family:Arial; text-anchor: middle;dominant-baseline: middle;" x="40.0" y="200.0">14:30</text>
    <line stroke="rgb(83%,83%,83%)" x1="80" x2="720" y1="200.0" y2="200.0" />
    <text style="font-size:10px; font-family:Arial; text-anchor: middle;dominant-baseline: middle;" x="40.0" y="250.0">14:45</text>
    <line stroke="rgb(83%,83%,83%)" x1="80" x2="720" y1="250.0" y2="250.0" />
    <text style="font-size:10px; font-family:Arial; text-anchor: middle;dominant-baseline: middle;" x="40.0" y="300.0">15:00</text>
    <line stroke="rgb(83%,83%,83%)" x1="80" x2="720" y1="300.0" y2="300.0" />
    <text style="font-size:10px; font-family:Arial; text-anchor: middle;dominant-baseline: middle;" x="400.0" y="79.77777777777777">102</text>
    <line stroke="rgb(100%,0%,0%)" x1="720.0" x2="80.0" y1="84.77777777777777" y2="84.77777777777777" />
    <line stroke="rgb(100%,0%,0%)" x1="90.0" x2="80.0" y1="79.77777777777777" y2="84.77777777777777" />
    <line stroke="rgb(100%,0%,0%)" x1="90.0" x2="80.0" y1="89.77777777777777" y2="84.77777777777777" />
    <text style="font-size:10px; font-family:Arial; text-anchor: middle;dominant-baseline: middle;" x="240.0" y="163.1111111111111">101</text>
    <line stroke="rgb(100%,0%,0%)" x1="80.0" x2="400.0" y1="168.1111111111111" y2="168.1111111111111" />
    <line stroke="rgb(100%,0%,0%)" x1="390.0" x2="400.0" y1="163.1111111111111" y2="168.1111111111111" />
    <line stroke="rgb(100%,0%,0%)" x1="390.0" x2="400.0" y1="173.1111111111111" y2="168.1111111111111" />
    <line stroke="rgb(0%,39%,0%)" x1="80.0" x2="80.0" y1="84.77777777777777" y2="168.1111111111111" />
    <line stroke="rgb(0%,39%,0%)" x1="80.0" x2="400.0" y1="168.1111111111111" y2="201.44444444444446" />
    <line stroke="rgb(0%,39%,0%)" x1="720.0" x2="720.0" y1="84.77777777777777" y2="84.77777777777777" />
    <line stroke="rgb(0%,39%,0%)" x1="720.0" x2="400.0" y1="84.77777777777777" y2="134.77777777777777" />
    <line stroke="rgb(0%,39%,0%)" x1="400.0" x2="80.0" y1="134.77777777777777" y2="143.33333333333331" />
</svg>